<?xml version="1.0" encoding="UTF-8" standalone="no"?>
<svg width="223.308mm" height="208.492mm"
 viewBox="0 0 633 591"
 xmlns="http://www.w3.org/2000/svg" xmlns:xlink="http://www.w3.org/1999/xlink"  version="1.2" baseProfile="tiny">
<title>Qt SVG Document</title>
<desc>MATLAB, The MathWorks, Inc. Version 25.1.0.2973910 R2025a Update 1</desc>
<defs>
</defs>
<g fill="none" stroke="black" stroke-width="1" fill-rule="evenodd" stroke-linecap="square" stroke-linejoin="bevel" >

<g fill="#000000" fill-opacity="1" stroke="none" transform="matrix(0.75,0,0,0.75,-2.25,-2.25)"
font-family="Gulim" font-size="9" font-weight="400" font-style="normal" 
>
<path vector-effect="none" fill-rule="evenodd" d="M1,2 L846,2 L846,791 L1,791 L1,2"/>
</g>

<g fill="#000000" fill-opacity="1" stroke="none" transform="matrix(7.5e-05,0,0,7.5e-05,-2.25,-2.25)"
font-family="Gulim" font-size="9" font-weight="400" font-style="normal" 
>
<path vector-effect="none" fill-rule="evenodd" d="M770000,440000 L770000,6.53e+06 L7.29e+06,6.53e+06 L7.29e+06,440000 L770000,440000"/>
</g>

<g fill="#595959" fill-opacity="0.14902" stroke="#595959" stroke-opacity="0.14902" stroke-width="1.6" stroke-linecap="butt" stroke-linejoin="round" transform="matrix(0.75,0,0,0.75,-2.25,-2.25)"
font-family="Gulim" font-size="9" font-weight="400" font-style="normal" 
>
<polyline fill="none" vector-effect="none" points="106.636,653 106.636,44 " />
<polyline fill="none" vector-effect="none" points="254.818,653 254.818,44 " />
<polyline fill="none" vector-effect="none" points="403,653 403,44 " />
<polyline fill="none" vector-effect="none" points="551.182,653 551.182,44 " />
<polyline fill="none" vector-effect="none" points="699.364,653 699.364,44 " />
</g>

<g fill="#383838" fill-opacity="0.14902" stroke="#383838" stroke-opacity="0.14902" stroke-dasharray="1,3" stroke-dashoffset="0" stroke-width="1.6" stroke-linecap="butt" stroke-linejoin="round" transform="matrix(0.75,0,0,0.75,-2.25,-2.25)"
font-family="Gulim" font-size="9" font-weight="400" font-style="normal" 
>
<polyline fill="none" vector-effect="none" points="729,626.81 77,626.81 " />
<polyline fill="none" vector-effect="none" points="729,611.49 77,611.49 " />
<polyline fill="none" vector-effect="none" points="729,600.621 77,600.621 " />
<polyline fill="none" vector-effect="none" points="729,592.19 77,592.19 " />
<polyline fill="none" vector-effect="none" points="729,585.301 77,585.301 " />
<polyline fill="none" vector-effect="none" points="729,579.476 77,579.476 " />
<polyline fill="none" vector-effect="none" points="729,574.431 77,574.431 " />
<polyline fill="none" vector-effect="none" points="729,569.981 77,569.981 " />
<polyline fill="none" vector-effect="none" points="729,566 77,566 " />
<polyline fill="none" vector-effect="none" points="729,539.81 77,539.81 " />
<polyline fill="none" vector-effect="none" points="729,524.49 77,524.49 " />
<polyline fill="none" vector-effect="none" points="729,513.621 77,513.621 " />
<polyline fill="none" vector-effect="none" points="729,505.19 77,505.19 " />
<polyline fill="none" vector-effect="none" points="729,498.301 77,498.301 " />
<polyline fill="none" vector-effect="none" points="729,492.476 77,492.476 " />
<polyline fill="none" vector-effect="none" points="729,487.431 77,487.431 " />
<polyline fill="none" vector-effect="none" points="729,482.981 77,482.981 " />
<polyline fill="none" vector-effect="none" points="729,479 77,479 " />
<polyline fill="none" vector-effect="none" points="729,452.81 77,452.81 " />
<polyline fill="none" vector-effect="none" points="729,437.49 77,437.49 " />
<polyline fill="none" vector-effect="none" points="729,426.621 77,426.621 " />
<polyline fill="none" vector-effect="none" points="729,418.19 77,418.19 " />
<polyline fill="none" vector-effect="none" points="729,411.301 77,411.301 " />
<polyline fill="none" vector-effect="none" points="729,405.476 77,405.476 " />
<polyline fill="none" vector-effect="none" points="729,400.431 77,400.431 " />
<polyline fill="none" vector-effect="none" points="729,395.981 77,395.981 " />
<polyline fill="none" vector-effect="none" points="729,392 77,392 " />
<polyline fill="none" vector-effect="none" points="729,365.81 77,365.81 " />
<polyline fill="none" vector-effect="none" points="729,350.49 77,350.49 " />
<polyline fill="none" vector-effect="none" points="729,339.621 77,339.621 " />
<polyline fill="none" vector-effect="none" points="729,331.19 77,331.19 " />
<polyline fill="none" vector-effect="none" points="729,324.301 77,324.301 " />
<polyline fill="none" vector-effect="none" points="729,318.476 77,318.476 " />
<polyline fill="none" vector-effect="none" points="729,313.431 77,313.431 " />
<polyline fill="none" vector-effect="none" points="729,308.981 77,308.981 " />
<polyline fill="none" vector-effect="none" points="729,278.81 77,278.81 " />
<polyline fill="none" vector-effect="none" points="729,263.49 77,263.49 " />
<polyline fill="none" vector-effect="none" points="729,252.621 77,252.621 " />
<polyline fill="none" vector-effect="none" points="729,244.19 77,244.19 " />
<polyline fill="none" vector-effect="none" points="729,237.301 77,237.301 " />
<polyline fill="none" vector-effect="none" points="729,231.476 77,231.476 " />
<polyline fill="none" vector-effect="none" points="729,226.431 77,226.431 " />
<polyline fill="none" vector-effect="none" points="729,221.981 77,221.981 " />
<polyline fill="none" vector-effect="none" points="729,218 77,218 " />
<polyline fill="none" vector-effect="none" points="729,191.81 77,191.81 " />
<polyline fill="none" vector-effect="none" points="729,176.49 77,176.49 " />
<polyline fill="none" vector-effect="none" points="729,165.621 77,165.621 " />
<polyline fill="none" vector-effect="none" points="729,157.19 77,157.19 " />
<polyline fill="none" vector-effect="none" points="729,150.301 77,150.301 " />
<polyline fill="none" vector-effect="none" points="729,144.476 77,144.476 " />
<polyline fill="none" vector-effect="none" points="729,139.431 77,139.431 " />
<polyline fill="none" vector-effect="none" points="729,134.981 77,134.981 " />
<polyline fill="none" vector-effect="none" points="729,104.81 77,104.81 " />
<polyline fill="none" vector-effect="none" points="729,89.4904 77,89.4904 " />
<polyline fill="none" vector-effect="none" points="729,78.6208 77,78.6208 " />
<polyline fill="none" vector-effect="none" points="729,70.1896 77,70.1896 " />
<polyline fill="none" vector-effect="none" points="729,63.3008 77,63.3008 " />
<polyline fill="none" vector-effect="none" points="729,57.4765 77,57.4765 " />
<polyline fill="none" vector-effect="none" points="729,52.4312 77,52.4312 " />
<polyline fill="none" vector-effect="none" points="729,47.9809 77,47.9809 " />
<polyline fill="none" vector-effect="none" points="729,44 77,44 " />
</g>

<g fill="#595959" fill-opacity="0.14902" stroke="#595959" stroke-opacity="0.14902" stroke-width="1.6" stroke-linecap="butt" stroke-linejoin="round" transform="matrix(0.75,0,0,0.75,-2.25,-2.25)"
font-family="Gulim" font-size="9" font-weight="400" font-style="normal" 
>
<polyline fill="none" vector-effect="none" points="729,653 77,653 " />
<polyline fill="none" vector-effect="none" points="729,479 77,479 " />
<polyline fill="none" vector-effect="none" points="729,305 77,305 " />
<polyline fill="none" vector-effect="none" points="729,131 77,131 " />
</g>

<g fill="#ffffff" fill-opacity="1" stroke="#ffffff" stroke-opacity="1" stroke-width="1.6" stroke-linecap="square" stroke-linejoin="round" transform="matrix(0.75,0,0,0.75,-2.25,-2.25)"
font-family="Gulim" font-size="9" font-weight="400" font-style="normal" 
>
<polyline fill="none" vector-effect="none" points="77,653 729,653 " />
</g>

<g fill="#ffffff" fill-opacity="1" stroke="#ffffff" stroke-opacity="1" stroke-width="1" stroke-linecap="square" stroke-linejoin="bevel" transform="matrix(0.75,0,0,0.75,69.1023,503.15)"
font-family="Helvetica" font-size="16" font-weight="400" font-style="normal" 
>
<text fill="#ffffff" fill-opacity="1" stroke="none" xml:space="preserve" x="0" y="0" font-family="Helvetica" font-size="16" font-weight="400" font-style="normal" 
 >-20</text>
</g>

<g fill="#ffffff" fill-opacity="1" stroke="#ffffff" stroke-opacity="1" stroke-width="1" stroke-linecap="square" stroke-linejoin="bevel" transform="matrix(0.75,0,0,0.75,180.239,503.15)"
font-family="Helvetica" font-size="16" font-weight="400" font-style="normal" 
>
<text fill="#ffffff" fill-opacity="1" stroke="none" xml:space="preserve" x="0" y="0" font-family="Helvetica" font-size="16" font-weight="400" font-style="normal" 
 >-10</text>
</g>

<g fill="#ffffff" fill-opacity="1" stroke="#ffffff" stroke-opacity="1" stroke-width="1" stroke-linecap="square" stroke-linejoin="bevel" transform="matrix(0.75,0,0,0.75,296.625,503.15)"
font-family="Helvetica" font-size="16" font-weight="400" font-style="normal" 
>
<text fill="#ffffff" fill-opacity="1" stroke="none" xml:space="preserve" x="0" y="0" font-family="Helvetica" font-size="16" font-weight="400" font-style="normal" 
 >0</text>
</g>

<g fill="#ffffff" fill-opacity="1" stroke="#ffffff" stroke-opacity="1" stroke-width="1" stroke-linecap="square" stroke-linejoin="bevel" transform="matrix(0.75,0,0,0.75,404.386,503.15)"
font-family="Helvetica" font-size="16" font-weight="400" font-style="normal" 
>
<text fill="#ffffff" fill-opacity="1" stroke="none" xml:space="preserve" x="0" y="0" font-family="Helvetica" font-size="16" font-weight="400" font-style="normal" 
 >10</text>
</g>

<g fill="#ffffff" fill-opacity="1" stroke="#ffffff" stroke-opacity="1" stroke-width="1" stroke-linecap="square" stroke-linejoin="bevel" transform="matrix(0.75,0,0,0.75,515.523,503.15)"
font-family="Helvetica" font-size="16" font-weight="400" font-style="normal" 
>
<text fill="#ffffff" fill-opacity="1" stroke="none" xml:space="preserve" x="0" y="0" font-family="Helvetica" font-size="16" font-weight="400" font-style="normal" 
 >20</text>
</g>

<g fill="#ffffff" fill-opacity="1" stroke="#ffffff" stroke-opacity="1" stroke-width="1" stroke-linecap="square" stroke-linejoin="bevel" transform="matrix(0.75,0,0,0.75,291.75,518.4)"
font-family="Helvetica" font-size="18" font-weight="700" font-style="normal" 
>
<text fill="#ffffff" fill-opacity="1" stroke="none" xml:space="preserve" x="0" y="0" font-family="Helvetica" font-size="18" font-weight="700" font-style="normal" 
 >V1</text>
</g>

<g fill="#ffffff" fill-opacity="1" stroke="#ffffff" stroke-opacity="1" stroke-width="1.6" stroke-linecap="square" stroke-linejoin="round" transform="matrix(0.75,0,0,0.75,-2.25,-2.25)"
font-family="Helvetica" font-size="18" font-weight="700" font-style="normal" 
>
<polyline fill="none" vector-effect="none" points="77,653 77,44 " />
</g>

<g fill="#ffffff" fill-opacity="1" stroke="#ffffff" stroke-opacity="1" stroke-width="1" stroke-linecap="square" stroke-linejoin="bevel" transform="matrix(0.75,0,0,0.75,24,493.5)"
font-family="Helvetica" font-size="16" font-weight="400" font-style="normal" 
>
<text fill="#ffffff" fill-opacity="1" stroke="none" xml:space="preserve" x="0" y="0" font-family="Helvetica" font-size="16" font-weight="400" font-style="normal" 
 >10</text>
</g>

<g fill="#ffffff" fill-opacity="1" stroke="#ffffff" stroke-opacity="1" stroke-width="1" stroke-linecap="square" stroke-linejoin="bevel" transform="matrix(0.75,0,0,0.75,37.5,487.5)"
font-family="Helvetica" font-size="12" font-weight="400" font-style="normal" 
>
<text fill="#ffffff" fill-opacity="1" stroke="none" xml:space="preserve" x="0" y="0" font-family="Helvetica" font-size="12" font-weight="400" font-style="normal" 
 >-13</text>
</g>

<g fill="#ffffff" fill-opacity="1" stroke="#ffffff" stroke-opacity="1" stroke-width="1" stroke-linecap="square" stroke-linejoin="bevel" transform="matrix(0.75,0,0,0.75,24.75,363)"
font-family="Helvetica" font-size="16" font-weight="400" font-style="normal" 
>
<text fill="#ffffff" fill-opacity="1" stroke="none" xml:space="preserve" x="0" y="0" font-family="Helvetica" font-size="16" font-weight="400" font-style="normal" 
 >10</text>
</g>

<g fill="#ffffff" fill-opacity="1" stroke="#ffffff" stroke-opacity="1" stroke-width="1" stroke-linecap="square" stroke-linejoin="bevel" transform="matrix(0.75,0,0,0.75,38.25,357)"
font-family="Helvetica" font-size="12" font-weight="400" font-style="normal" 
>
<text fill="#ffffff" fill-opacity="1" stroke="none" xml:space="preserve" x="0" y="0" font-family="Helvetica" font-size="12" font-weight="400" font-style="normal" 
 >-11</text>
</g>

<g fill="#ffffff" fill-opacity="1" stroke="#ffffff" stroke-opacity="1" stroke-width="1" stroke-linecap="square" stroke-linejoin="bevel" transform="matrix(0.75,0,0,0.75,29.25,232.5)"
font-family="Helvetica" font-size="16" font-weight="400" font-style="normal" 
>
<text fill="#ffffff" fill-opacity="1" stroke="none" xml:space="preserve" x="0" y="0" font-family="Helvetica" font-size="16" font-weight="400" font-style="normal" 
 >10</text>
</g>

<g fill="#ffffff" fill-opacity="1" stroke="#ffffff" stroke-opacity="1" stroke-width="1" stroke-linecap="square" stroke-linejoin="bevel" transform="matrix(0.75,0,0,0.75,42.75,226.5)"
font-family="Helvetica" font-size="12" font-weight="400" font-style="normal" 
>
<text fill="#ffffff" fill-opacity="1" stroke="none" xml:space="preserve" x="0" y="0" font-family="Helvetica" font-size="12" font-weight="400" font-style="normal" 
 >-9</text>
</g>

<g fill="#ffffff" fill-opacity="1" stroke="#ffffff" stroke-opacity="1" stroke-width="1" stroke-linecap="square" stroke-linejoin="bevel" transform="matrix(0.75,0,0,0.75,29.25,102)"
font-family="Helvetica" font-size="16" font-weight="400" font-style="normal" 
>
<text fill="#ffffff" fill-opacity="1" stroke="none" xml:space="preserve" x="0" y="0" font-family="Helvetica" font-size="16" font-weight="400" font-style="normal" 
 >10</text>
</g>

<g fill="#ffffff" fill-opacity="1" stroke="#ffffff" stroke-opacity="1" stroke-width="1" stroke-linecap="square" stroke-linejoin="bevel" transform="matrix(0.75,0,0,0.75,42.75,96)"
font-family="Helvetica" font-size="12" font-weight="400" font-style="normal" 
>
<text fill="#ffffff" fill-opacity="1" stroke="none" xml:space="preserve" x="0" y="0" font-family="Helvetica" font-size="12" font-weight="400" font-style="normal" 
 >-7</text>
</g>

<g fill="#ffffff" fill-opacity="1" stroke="#ffffff" stroke-opacity="1" stroke-width="1" stroke-linecap="square" stroke-linejoin="bevel" transform="matrix(0,-0.75,0.75,0,11.25,277.5)"
font-family="Helvetica" font-size="18" font-weight="700" font-style="normal" 
>
<text fill="#ffffff" fill-opacity="1" stroke="none" xml:space="preserve" x="0" y="0" font-family="Helvetica" font-size="18" font-weight="700" font-style="normal" 
 >Abs</text>
</g>

<g fill="#ffffff" fill-opacity="1" stroke="#ffffff" stroke-opacity="1" stroke-width="1" stroke-linecap="square" stroke-linejoin="bevel" transform="matrix(0,-0.75,0.75,0,18,252)"
font-family="Helvetica" font-size="14" font-weight="700" font-style="normal" 
>
<text fill="#ffffff" fill-opacity="1" stroke="none" xml:space="preserve" x="0" y="0" font-family="Helvetica" font-size="14" font-weight="700" font-style="normal" 
 >I</text>
</g>

<g fill="#ffffff" fill-opacity="1" stroke="#ffffff" stroke-opacity="1" stroke-width="1" stroke-linecap="square" stroke-linejoin="bevel" transform="matrix(0,-0.75,0.75,0,11.25,249)"
font-family="Helvetica" font-size="18" font-weight="700" font-style="normal" 
>
<text fill="#ffffff" fill-opacity="1" stroke="none" xml:space="preserve" x="0" y="0" font-family="Helvetica" font-size="18" font-weight="700" font-style="normal" 
 >d</text>
</g>

<g fill="#ffffff" fill-opacity="1" stroke="#ffffff" stroke-opacity="1" stroke-width="1" stroke-linecap="square" stroke-linejoin="bevel" transform="matrix(0.75,0,0,0.75,135,14.25)"
font-family="Helvetica" font-size="24" font-weight="700" font-style="normal" 
>
<text fill="#ffffff" fill-opacity="1" stroke="none" xml:space="preserve" x="0" y="0" font-family="Helvetica" font-size="24" font-weight="700" font-style="normal" 
 >Plot3 | Abs</text>
</g>

<g fill="#ffffff" fill-opacity="1" stroke="#ffffff" stroke-opacity="1" stroke-width="1" stroke-linecap="square" stroke-linejoin="bevel" transform="matrix(0.75,0,0,0.75,228,23.25)"
font-family="Helvetica" font-size="19" font-weight="700" font-style="normal" 
>
<text fill="#ffffff" fill-opacity="1" stroke="none" xml:space="preserve" x="0" y="0" font-family="Helvetica" font-size="19" font-weight="700" font-style="normal" 
 >I</text>
</g>

<g fill="#ffffff" fill-opacity="1" stroke="#ffffff" stroke-opacity="1" stroke-width="1" stroke-linecap="square" stroke-linejoin="bevel" transform="matrix(0.75,0,0,0.75,231.75,14.25)"
font-family="Helvetica" font-size="24" font-weight="700" font-style="normal" 
>
<text fill="#ffffff" fill-opacity="1" stroke="none" xml:space="preserve" x="0" y="0" font-family="Helvetica" font-size="24" font-weight="700" font-style="normal" 
 >d vs V1 (X-LINEAR, Y-LOG)</text>
</g>

<g fill="none" stroke="#ff5459" stroke-opacity="1" stroke-width="3.73333" stroke-linecap="butt" stroke-linejoin="round" transform="matrix(0.75,0,0,0.75,-2.25,-2.25)"
font-family="Helvetica" font-size="24" font-weight="700" font-style="normal" 
>
<polyline fill="none" vector-effect="none" points="402.772,653 400.036,471.345 397.073,451.791 394.109,438.192 391.145,426.149 388.182,415.118 385.218,404.896 382.255,395.041 379.291,385.756 376.327,377.192 373.364,368.748 370.4,360.003 367.436,352.114 364.473,344.579 361.509,336.378 358.545,330.905 355.582,323.495 352.618,316.781 349.655,311.022 346.691,304.082 343.727,294.075 340.764,290.228 337.8,285.574 334.836,279.728 331.873,274.591 328.909,270.134 325.945,264.764 322.982,259.614 320.018,254.579 317.055,250.744 314.091,247.024 311.127,243.212 308.164,238.986 305.2,235.016 302.236,229.752 299.273,226.65 296.309,222.494 293.345,217.519 290.382,215.635 287.418,212.933 284.455,208.297 281.491,205.55 278.527,201.388 275.564,198.857 272.6,195.076 269.636,187.363 266.673,188.847 263.709,187.111 260.745,183.272 257.782,181.176 254.818,177.676 251.855,175.397 248.891,172.752 245.927,170.413 242.964,167.96 240,165.182 237.036,163.011 234.073,160.896 231.109,158.205 228.145,155.952 225.182,154.04 222.218,152.43 219.255,149.671 216.291,147.406 213.327,146.013 210.364,144.181 207.4,142.355 204.436,140.5 201.473,138.365 198.509,136.092 195.545,134.255 192.582,133.175 189.618,131.322 186.655,129.891 183.691,128.727 180.727,126.806 177.764,124.304 174.8,122.939 171.836,121.699 168.873,120.171 165.909,117.93 162.945,116.33 159.982,114.769 157.018,113.367 154.055,111.107 151.091,109.847 148.127,108.299 145.164,106.756 142.2,105.198 139.236,103.567 136.273,102.226 133.309,100.604 130.345,99.469 127.382,97.8288 124.418,96.254 121.455,94.7161 118.491,93.5428 115.527,92.3084 112.564,90.8536 109.6,89.2895 106.636,87.9734 106.636,89.953 109.6,95.3211 112.564,99.729 115.527,103.617 118.491,107.844 121.455,111.416 124.418,115.595 127.382,119.742 130.345,123.49 133.309,127.255 136.273,130.725 139.236,134.603 142.2,138.238 145.164,142.17 148.127,146.014 151.091,150.22 154.055,153.722 157.018,157.469 159.982,161.326 162.945,165.187 165.909,169.682 168.873,173.35 171.836,177.336 174.8,181.598 177.764,185.709 180.727,189.459 183.691,193.398 186.655,197.292 189.618,201.612 192.582,205.195 195.545,209.472 198.509,213.54 201.473,217.516 204.436,221.069 207.4,224.782 210.364,228.96 213.327,232.838 216.291,236.915 219.255,240.863 222.218,244.716 225.182,248.709 228.145,252.575 231.109,256.501 234.073,260.319 237.036,264.526 240,268.651 242.964,272.701 245.927,276.635 248.891,280.54 251.855,284.727 254.818,288.691 257.782,292.918 260.745,296.952 263.709,301.074 266.673,304.789 269.636,308.781 272.6,312.724 275.564,316.895 278.527,320.918 281.491,325.157 284.455,329.299 287.418,333.425 290.382,337.707 293.345,342.216 296.309,346.243 299.273,350.638 302.236,355.001 305.2,359.45 308.164,363.821 311.127,368.423 314.091,373.026 317.055,378.071 320.018,382.667 322.982,387.099 325.945,392.16 328.909,397.399 331.873,402.327 334.836,407.471 337.8,413.032 340.764,418.308 343.727,423.494 346.691,429.415 349.655,434.973 352.618,440.971 355.582,446.819 358.545,453.179 361.509,459.398 364.473,465.951 367.436,472.823 370.4,479.725 373.364,486.911 376.327,494.597 379.291,503.038 382.255,511.84 385.218,520.935 388.182,531.289 391.145,543.833 394.109,558.363 397.073,578.834 400.036,611.239 403,648.382 403,653 " />
<polyline fill="none" vector-effect="none" points="404.482,653 405.964,575.974 408.927,546.353 411.891,527.463 414.855,512.752 417.818,500.485 420.782,490.239 423.745,479.659 426.709,470.514 429.673,460.976 432.636,452.266 435.6,443.274 438.564,433.793 441.527,423.881 444.491,413.163 447.455,402.074 450.418,389.324 453.382,374.916 456.345,362.84 459.309,350.67 462.273,334.556 465.236,321.416 468.2,312.865 471.164,300.355 474.127,289.125 477.091,280.966 480.055,270.024 483.018,260.318 485.982,250.997 488.945,243.337 491.909,237.09 494.873,230.423 497.836,224.96 500.8,219.181 503.764,214.183 506.727,210.857 509.691,209.367 512.655,208.954 515.618,208.898 518.582,208.913 521.545,208.916 524.509,208.939 527.473,208.96 530.436,208.978 533.4,208.984 536.364,208.987 539.327,209.014 542.291,209.02 545.255,209.026 548.218,209.026 551.182,209.035 554.145,209.046 557.109,209.055 560.073,209.029 563.036,209.052 566,209.073 568.964,209.067 571.927,209.073 574.891,209.073 577.855,209.076 580.818,209.088 583.782,209.094 586.745,209.094 589.709,209.1 592.673,209.1 595.636,209.115 598.6,209.118 601.564,209.136 604.527,209.16 607.491,209.151 610.455,209.16 613.418,209.169 616.382,209.163 619.345,209.169 622.309,209.193 625.273,209.187 628.236,209.202 631.2,209.199 634.164,209.211 637.127,209.205 640.091,209.226 643.055,209.235 646.018,209.235 648.982,209.244 651.945,209.244 654.909,209.265 657.873,209.28 660.836,209.283 663.8,209.298 666.764,209.298 669.727,209.292 672.691,209.31 675.655,209.325 678.618,209.34 681.582,209.34 684.545,209.349 687.509,209.367 690.473,209.364 693.436,209.361 696.4,209.364 699.364,209.388 699.364,209.382 696.4,209.397 693.436,209.406 690.473,209.415 687.509,209.427 684.545,209.439 681.582,209.439 678.618,209.445 675.655,209.46 672.691,209.502 669.727,209.508 666.764,209.517 663.8,209.52 660.836,209.536 657.873,209.548 654.909,209.551 651.945,209.563 648.982,209.572 646.018,209.572 643.055,209.593 640.091,209.602 637.127,209.602 634.164,209.605 631.2,209.632 628.236,209.632 625.273,209.638 622.309,209.666 619.345,209.669 616.382,209.684 613.418,209.708 610.455,209.696 607.491,209.693 604.527,209.699 601.564,209.72 598.6,209.723 595.636,209.735 592.673,209.751 589.709,209.738 586.745,209.763 583.782,209.772 580.818,209.775 577.855,209.787 574.891,209.796 571.927,209.811 568.964,209.811 566,209.814 563.036,209.827 560.073,209.827 557.109,209.83 554.145,209.839 551.182,209.842 548.218,209.86 545.255,209.863 542.291,209.875 539.327,209.875 536.364,209.878 533.4,209.888 530.436,209.912 527.473,209.93 524.509,209.921 521.545,209.942 518.582,209.942 515.618,209.955 512.655,209.958 509.691,209.976 506.727,209.988 503.764,209.997 500.8,210.01 497.836,210.007 494.873,210.016 491.909,210.04 488.945,210.053 485.982,210.059 483.018,210.083 480.055,210.083 477.091,210.105 474.127,210.111 471.164,210.111 468.2,210.12 465.236,210.138 462.273,210.175 459.309,210.178 456.345,210.169 453.382,210.197 450.418,210.203 447.455,210.215 444.491,210.23 441.527,210.243 438.564,210.258 435.6,210.283 432.636,210.323 429.673,210.375 426.709,210.773 423.745,213.205 420.782,220.16 417.818,232.917 414.855,249.044 411.891,273.8 408.927,312.315 405.964,393.275 403.34,653 " />
</g>

<g fill="none" stroke="#ffa34a" stroke-opacity="1" stroke-width="3.73333" stroke-linecap="butt" stroke-linejoin="round" transform="matrix(0.75,0,0,0.75,-2.25,-2.25)"
font-family="Helvetica" font-size="24" font-weight="700" font-style="normal" 
>
<polyline fill="none" vector-effect="none" points="403,639.751 400.036,460.164 397.073,441.953 394.109,428.519 391.145,415.525 388.182,404.763 385.218,394.692 382.255,384.651 379.291,375.85 376.327,367.063 373.364,358.743 370.4,351.036 367.436,343.767 364.473,336.172 361.509,328.654 358.545,322.977 355.582,315.673 352.618,309.363 349.655,303.642 346.691,296.376 343.727,290.177 340.764,284.406 337.8,278.731 334.836,273.599 331.873,267.844 328.909,262.69 325.945,258.636 322.982,253.803 320.018,249.103 317.055,245.022 314.091,238.67 311.127,235.556 308.164,231.008 305.2,227.632 302.236,223.468 299.273,219.041 296.309,216.236 293.345,213.728 290.382,209.533 287.418,206.047 284.455,201.293 281.491,198.493 278.527,195.214 275.564,191.956 272.6,189.435 269.636,187.335 266.673,185.45 263.709,182.093 260.745,179.507 257.782,176.843 254.818,174.161 251.855,172.123 248.891,169.307 245.927,167.675 242.964,165.058 240,163.034 237.036,159.864 234.073,158.602 231.109,155.937 228.145,153.821 225.182,151.826 222.218,149.682 219.255,147.616 216.291,144.809 213.327,143.822 210.364,142.028 207.4,139.929 204.436,137.912 201.473,136.361 198.509,134.871 195.545,133.072 192.582,131.515 189.618,129.139 186.655,128.296 183.691,126.146 180.727,124.342 177.764,122.742 174.8,120.809 171.836,119.235 168.873,117.714 165.909,116.108 162.945,114.412 159.982,112.929 157.018,111.172 154.055,109.497 151.091,108.324 148.127,106.725 145.164,105.123 142.2,103.622 139.236,101.98 136.273,100.507 133.309,98.9445 130.345,97.4289 127.382,95.7245 124.418,94.3205 121.455,93.0428 118.491,91.6479 115.527,90.1575 112.564,88.6793 109.6,87.321 106.636,85.4182 106.636,87.8141 109.6,93.0027 112.564,96.9963 115.527,100.696 118.491,105.038 121.455,108.985 124.418,112.626 127.382,116.536 130.345,120.31 133.309,123.926 136.273,127.876 139.236,131.114 142.2,135.221 145.164,139.754 148.127,142.756 151.091,146.99 154.055,150.647 157.018,154.527 159.982,158.511 162.945,162.659 165.909,166.602 168.873,170.558 171.836,174.655 174.8,178.401 177.764,182.575 180.727,186.961 183.691,190.933 186.655,195.047 189.618,198.937 192.582,203.052 195.545,207.14 198.509,210.992 201.473,215.138 204.436,218.445 207.4,222.611 210.364,226.354 213.327,230.178 216.291,234.304 219.255,238.493 222.218,242.225 225.182,246.279 228.145,250.306 231.109,254.388 234.073,258.152 237.036,262.322 240,266.316 242.964,270.32 245.927,274.281 248.891,278.062 251.855,282.341 254.818,286.171 257.782,290.06 260.745,294.191 263.709,298.228 266.673,302.012 269.636,305.793 272.6,309.762 275.564,313.803 278.527,317.814 281.491,322.128 284.455,326.134 287.418,330.192 290.382,334.435 293.345,338.73 296.309,342.877 299.273,347.261 302.236,351.645 305.2,355.939 308.164,360.544 311.127,365.07 314.091,369.781 317.055,374.467 320.018,379.279 322.982,384.056 325.945,389.201 328.909,393.984 331.873,399.257 334.836,404.327 337.8,409.722 340.764,415.045 343.727,420.812 346.691,426.522 349.655,432.446 352.618,438.386 355.582,444.156 358.545,450.341 361.509,456.553 364.473,463.645 367.436,470.478 370.4,477.707 373.364,485.359 376.327,492.823 379.291,501.138 382.255,510.063 385.218,519.772 388.182,530.248 391.145,543.312 394.109,558.456 397.073,579.154 400.036,608.234 403,647.068 403,653 " />
<polyline fill="none" vector-effect="none" points="404.499,653 405.964,571.523 408.927,541.768 411.891,522.028 414.855,506.969 417.818,493.795 420.782,482.266 423.745,471.685 426.709,461.476 429.673,451.441 432.636,441.491 435.6,431.636 438.564,421.357 441.527,410.305 444.491,398.906 447.455,384.437 450.418,372.683 453.382,359.351 456.345,343.587 459.309,326.52 462.273,315.419 465.236,300.667 468.2,290.085 471.164,279.024 474.127,270.286 477.091,260.101 480.055,250.811 483.018,242.448 485.982,235.766 488.945,228.276 491.909,220.799 494.873,214.485 497.836,209.133 500.8,204.906 503.764,201.828 506.727,200.412 509.691,200.074 512.655,200.067 515.618,200.079 518.582,200.095 521.545,200.121 524.509,200.128 527.473,200.145 530.436,200.152 533.4,200.176 536.364,200.187 539.327,200.201 542.291,200.223 545.255,200.237 548.218,200.251 551.182,200.251 554.145,200.275 557.109,200.275 560.073,200.289 563.036,200.305 566,200.305 568.964,200.31 571.927,200.341 574.891,200.341 577.855,200.338 580.818,200.336 583.782,200.35 586.745,200.35 589.709,200.355 592.673,200.36 595.636,200.367 598.6,200.383 601.564,200.381 604.527,200.402 607.491,200.412 610.455,200.412 613.418,200.421 616.382,200.407 619.345,200.414 622.309,200.421 625.273,200.429 628.236,200.431 631.2,200.457 634.164,200.462 637.127,200.452 640.091,200.478 643.055,200.474 646.018,200.478 648.982,200.49 651.945,200.5 654.909,200.514 657.873,200.531 660.836,200.524 663.8,200.538 666.764,200.545 669.727,200.555 672.691,200.54 675.655,200.552 678.618,200.557 681.582,200.562 684.545,200.583 687.509,200.576 690.473,200.59 693.436,200.588 696.4,200.593 699.364,200.6 699.364,200.619 696.4,200.636 693.436,200.657 690.473,200.676 687.509,200.674 684.545,200.681 681.582,200.698 678.618,200.707 675.655,200.702 672.691,200.724 669.727,200.724 666.764,200.748 663.8,200.762 660.836,200.765 657.873,200.786 654.909,200.796 651.945,200.791 648.982,200.786 646.018,200.808 643.055,200.829 640.091,200.815 637.127,200.825 634.164,200.827 631.2,200.832 628.236,200.853 625.273,200.875 622.309,200.894 619.345,200.894 616.382,200.897 613.418,200.923 610.455,200.925 607.491,200.945 604.527,200.952 601.564,200.954 598.6,200.957 595.636,200.966 592.673,200.981 589.709,200.981 586.745,201 583.782,201.024 580.818,201.027 577.855,201.039 574.891,201.039 571.927,201.043 568.964,201.06 566,201.07 563.036,201.089 560.073,201.109 557.109,201.104 554.145,201.106 551.182,201.121 548.218,201.133 545.255,201.14 542.291,201.159 539.327,201.164 536.364,201.176 533.4,201.176 530.436,201.188 527.473,201.213 524.509,201.222 521.545,201.225 518.582,201.237 515.618,201.244 512.655,201.256 509.691,201.261 506.727,201.276 503.764,201.271 500.8,201.285 497.836,201.295 494.873,201.307 491.909,201.317 488.945,201.339 485.982,201.341 483.018,201.346 480.055,201.346 477.091,201.361 474.127,201.366 471.164,201.392 468.2,201.409 465.236,201.414 462.273,201.429 459.309,201.431 456.345,201.444 453.382,201.448 450.418,201.453 447.455,201.475 444.491,201.5 441.527,201.517 438.564,201.536 435.6,201.556 432.636,201.583 429.673,201.61 426.709,201.659 423.745,201.937 420.782,204.645 417.818,212.461 414.855,228.169 411.891,250.271 408.927,288.334 405.964,369.632 403,646.427 " />
</g>

<g fill="none" stroke="#54ff4a" stroke-opacity="1" stroke-width="3.73333" stroke-linecap="butt" stroke-linejoin="round" transform="matrix(0.75,0,0,0.75,-2.25,-2.25)"
font-family="Helvetica" font-size="24" font-weight="700" font-style="normal" 
>
<polyline fill="none" vector-effect="none" points="403,616.752 400.036,451.907 397.073,434.465 394.109,420.678 391.145,408.656 388.182,397.053 385.218,386.96 382.255,376.359 379.291,366.728 376.327,357.863 373.364,349.04 370.4,341.68 367.436,334.068 364.473,326.807 361.509,320.346 358.545,313.261 355.582,308.43 352.618,303.261 349.655,296.394 346.691,290.987 343.727,284.756 340.764,278.985 337.8,272.775 334.836,266.318 331.873,260.964 328.909,256.393 325.945,250.84 322.982,247.372 320.018,243.671 317.055,239.646 314.091,235.62 311.127,231.043 308.164,226.495 305.2,222.999 302.236,219.222 299.273,216.25 296.309,213.232 293.345,209.334 290.382,205.042 287.418,201.419 284.455,197.987 281.491,195.033 278.527,192.464 275.564,189.502 272.6,185.675 269.636,183.277 266.673,180.229 263.709,176.832 260.745,173.888 257.782,172.514 254.818,170.044 251.855,167.378 248.891,164.773 245.927,163.035 242.964,160.161 240,158.201 237.036,156.767 234.073,154.666 231.109,152.198 228.145,149.934 225.182,147.628 222.218,146.028 219.255,144.43 216.291,142.267 213.327,139.748 210.364,137.971 207.4,136.586 204.436,135.116 201.473,133.087 198.509,130.989 195.545,129.751 192.582,127.149 189.618,124.958 186.655,122.79 183.691,121.288 180.727,119.979 177.764,118.571 174.8,116.792 171.836,115.337 168.873,113.703 165.909,112.065 162.945,110.676 159.982,109.235 157.018,108.107 154.055,105.771 151.091,104.168 148.127,102.854 145.164,101.256 142.2,99.6498 139.236,98.5375 136.273,97.2986 133.309,95.7468 130.345,94.132 127.382,93.0234 124.418,91.572 121.455,89.8346 118.491,88.4618 115.527,86.7497 112.564,85.7955 109.6,84.0077 106.636,82.8227 106.636,84.5873 109.6,89.8282 112.564,94.3634 115.527,98.3395 118.491,102.088 121.455,105.905 124.418,109.152 127.382,112.903 130.345,116.732 133.309,120.459 136.273,124.058 139.236,128.148 142.2,131.959 145.164,135.607 148.127,139.26 151.091,142.999 154.055,146.787 157.018,150.719 159.982,154.229 162.945,158.123 165.909,162.225 168.873,166.071 171.836,170.036 174.8,174.021 177.764,177.995 180.727,182.09 183.691,186.309 186.655,190.243 189.618,194.328 192.582,198.461 195.545,202.542 198.509,206.349 201.473,210.57 204.436,214.595 207.4,218.332 210.364,222.228 213.327,225.874 216.291,230.048 219.255,233.939 222.218,237.723 225.182,241.558 228.145,245.566 231.109,249.354 234.073,253.324 237.036,257.509 240,261.501 242.964,265.354 245.927,269.34 248.891,273.273 251.855,277.285 254.818,281.52 257.782,285.452 260.745,289.386 263.709,293.493 266.673,297.732 269.636,301.845 272.6,305.455 275.564,309.409 278.527,313.597 281.491,317.495 284.455,321.696 287.418,325.748 290.382,329.923 293.345,334.134 296.309,338.472 299.273,342.947 302.236,347.288 305.2,351.758 308.164,355.969 311.127,360.535 314.091,365.127 317.055,369.882 320.018,374.738 322.982,379.571 325.945,384.701 328.909,389.472 331.873,394.547 334.836,399.773 337.8,405.277 340.764,410.881 343.727,416.55 346.691,422.477 349.655,428.329 352.618,434.116 355.582,439.938 358.545,446.595 361.509,452.966 364.473,459.576 367.436,466.363 370.4,473.654 373.364,481.258 376.327,489.235 379.291,496.995 382.255,506.403 385.218,515.979 388.182,526.468 391.145,539.025 394.109,553.748 397.073,571.567 400.036,603.059 403,648.382 403,653 " />
<polyline fill="none" vector-effect="none" points="403.84,653 405.964,562.987 408.927,532.859 411.891,513.677 414.855,497.838 417.818,485.207 420.782,473.019 423.745,461.841 426.709,451.292 429.673,441.183 432.636,431.361 435.6,421.205 438.564,410.679 441.527,399.822 444.491,388.945 447.455,378.144 450.418,368.076 453.382,356.008 456.345,344.19 459.309,331.553 462.273,321.392 465.236,308.998 468.2,297.948 471.164,286.955 474.127,274.742 477.091,263.189 480.055,253.579 483.018,244.015 485.982,234.316 488.945,226.384 491.909,218.356 494.873,210.617 497.836,203.977 500.8,199.23 503.764,195.287 506.727,192.674 509.691,191.775 512.655,191.569 515.618,191.567 518.582,191.592 521.545,191.635 524.509,191.654 527.473,191.669 530.436,191.697 533.4,191.701 536.364,191.725 539.327,191.763 542.291,191.767 545.255,191.788 548.218,191.788 551.182,191.81 554.145,191.829 557.109,191.837 560.073,191.846 563.036,191.854 566,191.88 568.964,191.884 571.927,191.897 574.891,191.907 577.855,191.911 580.818,191.914 583.782,191.931 586.745,191.931 589.709,191.935 592.673,191.93 595.636,191.947 598.6,191.966 601.564,191.969 604.527,191.981 607.491,191.979 610.455,192 613.418,191.998 616.382,192.004 619.345,192.013 622.309,192.024 625.273,192.028 628.236,192.038 631.2,192.032 634.164,192.045 637.127,192.038 640.091,192.049 643.055,192.057 646.018,192.062 648.982,192.074 651.945,192.068 654.909,192.074 657.873,192.082 660.836,192.087 663.8,192.097 666.764,192.097 669.727,192.131 672.691,192.133 675.655,192.146 678.618,192.135 681.582,192.142 684.545,192.142 687.509,192.163 690.473,192.177 693.436,192.162 696.4,192.182 699.364,192.19 699.364,192.2 696.4,192.217 693.436,192.228 690.473,192.23 687.509,192.257 684.545,192.263 681.582,192.282 678.618,192.297 675.655,192.316 672.691,192.328 669.727,192.341 666.764,192.33 663.8,192.36 660.836,192.381 657.873,192.389 654.909,192.395 651.945,192.391 648.982,192.403 646.018,192.42 643.055,192.429 640.091,192.433 637.127,192.445 634.164,192.439 631.2,192.452 628.236,192.479 625.273,192.479 622.309,192.512 619.345,192.506 616.382,192.52 613.418,192.527 610.455,192.556 607.491,192.57 604.527,192.578 601.564,192.599 598.6,192.595 595.636,192.624 592.673,192.637 589.709,192.641 586.745,192.657 583.782,192.655 580.818,192.666 577.855,192.664 574.891,192.682 571.927,192.707 568.964,192.707 566,192.734 563.036,192.746 560.073,192.748 557.109,192.755 554.145,192.765 551.182,192.779 548.218,192.786 545.255,192.798 542.291,192.81 539.327,192.821 536.364,192.839 533.4,192.848 530.436,192.848 527.473,192.866 524.509,192.876 521.545,192.881 518.582,192.897 515.618,192.911 512.655,192.926 509.691,192.938 506.727,192.934 503.764,192.944 500.8,192.961 497.836,192.965 494.873,192.985 491.909,192.983 488.945,193.002 485.982,193.024 483.018,193.031 480.055,193.045 477.091,193.039 474.127,193.047 471.164,193.057 468.2,193.072 465.236,193.09 462.273,193.098 459.309,193.127 456.345,193.145 453.382,193.155 450.418,193.176 447.455,193.19 444.491,193.209 441.527,193.229 438.564,193.247 435.6,193.272 432.636,193.298 429.673,193.321 426.709,193.4 423.745,194.12 420.782,198.02 417.818,208 414.855,223.938 411.891,247.734 408.927,283.141 405.964,357.632 403,634.772 " />
</g>

<g fill="none" stroke="#57abff" stroke-opacity="1" stroke-width="3.73333" stroke-linecap="butt" stroke-linejoin="round" transform="matrix(0.75,0,0,0.75,-2.25,-2.25)"
font-family="Helvetica" font-size="24" font-weight="700" font-style="normal" 
>
<polyline fill="none" vector-effect="none" points="401.106,653 400.036,578.203 397.073,537.413 394.109,510.321 391.145,489.674 388.182,473.769 385.218,461.552 382.255,450.139 379.291,440.072 376.327,429.107 373.364,419.646 370.4,409.789 367.436,400.656 364.473,391.393 361.509,383.1 358.545,375.417 355.582,367.239 352.618,359.843 349.655,351.761 346.691,344.586 343.727,336.757 340.764,329.451 337.8,323.009 334.836,317.434 331.873,309.521 328.909,305.053 325.945,300.816 322.982,294.424 320.018,288.475 317.055,282.339 314.091,277.142 311.127,272.435 308.164,267.583 305.2,263.535 302.236,259.312 299.273,255.373 296.309,250.248 293.345,245.664 290.382,242.457 287.418,237.514 284.455,235.035 281.491,231.43 278.527,228.668 275.564,224.817 272.6,221.732 269.636,218.609 266.673,215.384 263.709,213.192 260.745,209.172 257.782,206.474 254.818,202.923 251.855,200.187 248.891,196.804 245.927,193.896 242.964,190.785 240,188.194 237.036,185.418 234.073,183.167 231.109,180.757 228.145,178.897 225.182,176.513 222.218,173.71 219.255,171.98 216.291,169.349 213.327,167.39 210.364,165.584 207.4,163.689 204.436,161.662 201.473,159.71 198.509,157.399 195.545,155.389 192.582,153.792 189.618,152.326 186.655,150.594 183.691,149.148 180.727,147.556 177.764,146.112 174.8,144.307 171.836,142.708 168.873,140.785 165.909,139.444 162.945,137.564 159.982,136.501 157.018,135.025 154.055,133.274 151.091,131.725 148.127,129.729 145.164,129.243 142.2,127.488 139.236,125.953 136.273,124.354 133.309,122.827 130.345,121.414 127.382,120.154 124.418,118.487 121.455,116.839 118.491,115.135 115.527,113.849 112.564,112.29 109.6,110.884 106.636,109.309 106.636,111.25 109.6,117.362 112.564,121.288 115.527,125.334 118.491,129.366 121.455,133.867 124.418,137.524 127.382,141.791 130.345,145.684 133.309,149.616 136.273,153.758 139.236,157.857 142.2,161.537 145.164,165.722 148.127,169.763 151.091,173.774 154.055,177.739 157.018,181.939 159.982,185.781 162.945,189.82 165.909,193.774 168.873,197.86 171.836,202.217 174.8,206.246 177.764,210.221 180.727,214.149 183.691,217.628 186.655,222.015 189.618,225.955 192.582,230.316 195.545,234.12 198.509,238.405 201.473,242.184 204.436,246.348 207.4,250.14 210.364,253.941 213.327,258.46 216.291,262.359 219.255,266.433 222.218,270.453 225.182,274.454 228.145,278.577 231.109,282.378 234.073,286.403 237.036,290.631 240,294.674 242.964,298.59 245.927,302.859 248.891,306.242 251.855,310.319 254.818,314.121 257.782,317.914 260.745,321.791 263.709,325.982 266.673,330.262 269.636,334.355 272.6,338.588 275.564,342.557 278.527,346.74 281.491,350.857 284.455,355.346 287.418,359.435 290.382,363.83 293.345,368.034 296.309,372.378 299.273,376.897 302.236,381.45 305.2,386.188 308.164,390.675 311.127,395.305 314.091,399.829 317.055,404.74 320.018,409.558 322.982,414.553 325.945,419.372 328.909,424.801 331.873,430.059 334.836,435.463 337.8,441.321 340.764,446.783 343.727,452.967 346.691,458.907 349.655,465.058 352.618,471.382 355.582,477.99 358.545,485.355 361.509,491.898 364.473,499.843 367.436,507.287 370.4,515.979 373.364,524.528 376.327,533.927 379.291,543.749 382.255,556.029 385.218,567.859 388.182,582.16 391.145,596.848 394.109,615.752 395.645,653 " />
<polyline fill="none" vector-effect="none" points="402.918,653 403,652.252 403,653 " />
<polyline fill="none" vector-effect="none" points="404.186,653 405.964,624.078 408.927,616.178 411.891,602.858 414.855,593.653 417.818,586.909 420.782,578.781 423.745,574.149 426.709,569.398 429.673,561.315 432.636,556 435.6,551.65 438.564,546.308 441.527,540.825 444.491,536.815 447.455,533.095 450.418,528.979 453.382,523.73 456.345,520.445 459.309,516.302 462.273,512.339 465.236,508.654 468.2,504.419 471.164,501.609 474.127,497.831 477.091,494.182 480.055,489.819 483.018,486.72 485.982,482.843 488.945,479.617 491.909,476.11 494.873,473.023 497.836,469.461 500.8,465.892 503.764,462.256 506.727,458.975 509.691,455.289 512.655,452.136 515.618,448.446 518.582,445.21 521.545,442.166 524.509,438.438 527.473,434.747 530.436,431.939 533.4,428.657 536.364,425.23 539.327,421.777 542.291,418.827 545.255,415.577 548.218,411.977 551.182,408.341 554.145,405.382 557.109,401.646 560.073,397.987 563.036,394.65 566,390.766 568.964,387.57 571.927,384.203 574.891,380.574 577.855,376.814 580.818,372.805 583.782,369.078 586.745,365.125 589.709,361.653 592.673,358.001 595.636,353.69 598.6,350.267 601.564,346.984 604.527,342.976 607.491,339.538 610.455,336.244 613.418,332.24 616.382,329.201 619.345,326.195 622.309,322.695 625.273,319.502 628.236,316.382 631.2,313.515 634.164,310.749 637.127,307.444 640.091,304.038 643.055,301.19 646.018,299.233 648.982,296.448 651.945,294.199 654.909,291.841 657.873,289.239 660.836,286.922 663.8,284.674 666.764,282.592 669.727,280.844 672.691,278.875 675.655,276.852 678.618,275.139 681.582,273.209 684.545,271.101 687.509,269.635 690.473,267.981 693.436,266.315 696.4,264.969 699.364,263.343 699.364,263.283 696.4,264.129 693.436,265.254 690.473,266.292 687.509,267.555 684.545,268.687 681.582,269.607 678.618,270.966 675.655,272.165 672.691,273.423 669.727,274.643 666.764,275.681 663.8,277.104 660.836,278.911 657.873,280.319 654.909,282.187 651.945,283.216 648.982,284.423 646.018,285.848 643.055,287.197 640.091,288.996 637.127,290.425 634.164,292.381 631.2,294.285 628.236,295.871 625.273,297.885 622.309,299.132 619.345,301.255 616.382,303.034 613.418,304.341 610.455,306.71 607.491,308.626 604.527,310.345 601.564,312.225 598.6,314.642 595.636,316.419 592.673,318.108 589.709,320.8 586.745,322.418 583.782,324.581 580.818,327.191 577.855,328.85 574.891,330.493 571.927,332.778 568.964,335.884 566,338.114 563.036,340.948 560.073,343.966 557.109,345.985 554.145,348.089 551.182,351.803 548.218,354.655 545.255,356.891 542.291,359.515 539.327,362.601 536.364,365.464 533.4,368.879 530.436,371.617 527.473,374.353 524.509,377.977 521.545,382.379 518.582,386.604 515.618,390.25 512.655,393.344 509.691,398.738 506.727,402.884 503.764,407.006 500.8,410.713 497.836,415.611 494.873,420.259 491.909,424.115 488.945,428.225 485.982,433.659 483.018,437.972 480.055,442.378 477.091,446.456 474.127,451.1 471.164,454.772 468.2,459.022 465.236,463.595 462.273,466.987 459.309,472.14 456.345,477.085 453.382,481.294 450.418,485.319 447.455,489.404 444.491,493.289 441.527,497.85 438.564,503.074 435.6,507.048 432.636,513.021 429.673,518.591 426.709,524.102 423.745,529.709 420.782,536.92 417.818,543.125 414.855,551.935 411.891,561.215 408.927,573.268 405.964,590.926 403.633,653 " />
</g>

<g fill="none" stroke="#914dfa" stroke-opacity="1" stroke-width="3.73333" stroke-linecap="butt" stroke-linejoin="round" transform="matrix(0.75,0,0,0.75,-2.25,-2.25)"
font-family="Helvetica" font-size="24" font-weight="700" font-style="normal" 
>
<polyline fill="none" vector-effect="none" points="402.349,653 400.036,486.845 397.073,463.832 394.109,449.074 391.145,437.618 388.182,426.973 385.218,416.996 382.255,407.361 379.291,397.847 376.327,388.775 373.364,379.158 370.4,370.869 367.436,361.927 364.473,354.327 361.509,345.844 358.545,338.436 355.582,330.31 352.618,323.684 349.655,316.764 346.691,310.36 343.727,304.393 340.764,297.391 337.8,291.414 334.836,284.893 331.873,278.399 328.909,272.381 325.945,267.025 322.982,262.551 320.018,257.425 317.055,252.103 314.091,247.864 311.127,243.373 308.164,238.971 305.2,234.742 302.236,230.391 299.273,227.253 296.309,222.614 293.345,218.738 290.382,214.599 287.418,212.637 284.455,207.625 281.491,203.867 278.527,200.102 275.564,196.407 272.6,192.692 269.636,189.603 266.673,185.956 263.709,182.339 260.745,179.834 257.782,176.905 254.818,174.136 251.855,171.338 248.891,168.225 245.927,166.096 242.964,163.913 240,161.255 237.036,159.141 234.073,156.487 231.109,154.459 228.145,151.562 225.182,150.269 222.218,147.828 219.255,145.644 216.291,143.558 213.327,142.175 210.364,140.109 207.4,138.42 204.436,136.8 201.473,134.677 198.509,132.955 195.545,131.236 192.582,129.584 189.618,128.246 186.655,125.933 183.691,124.644 180.727,122.406 177.764,120.875 174.8,119.34 171.836,117.407 168.873,116.085 165.909,114.307 162.945,112.574 159.982,110.991 157.018,109.258 154.055,107.879 151.091,106.217 148.127,104.474 145.164,103.122 142.2,101.575 139.236,99.6663 136.273,98.7332 133.309,97.0578 130.345,95.4389 127.382,93.772 124.418,92.3084 121.455,91.3001 118.491,90.3142 115.527,89.1008 112.564,87.0543 109.6,86.1605 106.636,85.0189 106.636,87.2188 109.6,92.593 112.564,96.941 115.527,101.271 118.491,105.162 121.455,109.112 124.418,112.861 127.382,116.577 130.345,120.1 133.309,124.196 136.273,127.977 139.236,132.062 142.2,135.994 145.164,139.519 148.127,143.156 151.091,147.416 154.055,151.714 157.018,155.283 159.982,159.216 162.945,163.295 165.909,167.319 168.873,171.329 171.836,175.544 174.8,179.622 177.764,183.47 180.727,187.577 183.691,191.646 186.655,195.422 189.618,199.516 192.582,203.66 195.545,207.951 198.509,212.084 201.473,215.806 204.436,219.497 207.4,223.704 210.364,227.757 213.327,231.814 216.291,235.841 219.255,239.723 222.218,243.615 225.182,247.904 228.145,251.842 231.109,255.875 234.073,259.952 237.036,263.961 240,268.092 242.964,271.967 245.927,276.046 248.891,280.17 251.855,284.307 254.818,288.434 257.782,292.43 260.745,296.364 263.709,300.479 266.673,304.669 269.636,308.485 272.6,312.619 275.564,316.641 278.527,320.839 281.491,324.88 284.455,329.009 287.418,333.19 290.382,337.459 293.345,341.71 296.309,346.119 299.273,350.499 302.236,354.984 305.2,359.534 308.164,363.902 311.127,368.522 314.091,373.214 317.055,377.953 320.018,382.732 322.982,387.543 325.945,392.178 328.909,397.334 331.873,402.256 334.836,407.505 337.8,412.633 340.764,417.963 343.727,423.471 346.691,429.116 349.655,434.415 352.618,440.086 355.582,445.963 358.545,452.023 361.509,458.314 364.473,464.665 367.436,471.191 370.4,478.304 373.364,485.556 376.327,493.334 379.291,501.451 382.255,510.183 385.218,520.457 388.182,530.75 391.145,544.002 394.109,558.58 397.073,578.203 400.036,611.115 403,649.057 403,653 " />
<polyline fill="none" vector-effect="none" points="404.13,653 405.964,581.188 408.927,550.605 411.891,532.718 414.855,517.791 417.818,505.024 420.782,493.834 423.745,483.89 426.709,474.142 429.673,465.33 432.636,456.314 435.6,447.535 438.564,438.286 441.527,429.407 444.491,419.897 447.455,409.673 450.418,398.725 453.382,385.798 456.345,371.732 459.309,358.178 462.273,343.543 465.236,328.546 468.2,316.116 471.164,302.841 474.127,290.802 477.091,280.78 480.055,271.514 483.018,261.677 485.982,254.245 488.945,246.074 491.909,238.844 494.873,231.737 497.836,226.281 500.8,221.99 503.764,219.119 506.727,218.089 509.691,217.936 512.655,217.962 515.618,217.985 518.582,218.016 521.545,218.023 524.509,218.029 527.473,218.048 530.436,218.07 533.4,218.077 536.364,218.092 539.327,218.086 542.291,218.112 545.255,218.109 548.218,218.122 551.182,218.132 554.145,218.143 557.109,218.15 560.073,218.17 563.036,218.171 566,218.179 568.964,218.189 571.927,218.202 574.891,218.21 577.855,218.219 580.818,218.236 583.782,218.225 586.745,218.236 589.709,218.26 592.673,218.258 595.636,218.289 598.6,218.306 601.564,218.315 604.527,218.33 607.491,218.336 610.455,218.343 613.418,218.344 616.382,218.359 619.345,218.366 622.309,218.381 625.273,218.383 628.236,218.376 631.2,218.384 634.164,218.39 637.127,218.409 640.091,218.421 643.055,218.446 646.018,218.442 648.982,218.45 651.945,218.46 654.909,218.476 657.873,218.473 660.836,218.479 663.8,218.504 666.764,218.516 669.727,218.504 672.691,218.512 675.655,218.522 678.618,218.544 681.582,218.549 684.545,218.55 687.509,218.547 690.473,218.55 693.436,218.575 696.4,218.596 699.364,218.597 699.364,218.606 696.4,218.602 693.436,218.607 690.473,218.611 687.509,218.618 684.545,218.622 681.582,218.646 678.618,218.646 675.655,218.665 672.691,218.685 669.727,218.696 666.764,218.681 663.8,218.691 660.836,218.7 657.873,218.712 654.909,218.728 651.945,218.742 648.982,218.744 646.018,218.765 643.055,218.781 640.091,218.775 637.127,218.791 634.164,218.802 631.2,218.812 628.236,218.82 625.273,218.816 622.309,218.822 619.345,218.841 616.382,218.86 613.418,218.866 610.455,218.875 607.491,218.882 604.527,218.887 601.564,218.892 598.6,218.907 595.636,218.916 592.673,218.911 589.709,218.945 586.745,218.939 583.782,218.943 580.818,218.959 577.855,218.962 574.891,218.973 571.927,218.974 568.964,218.966 566,218.981 563.036,218.995 560.073,219.002 557.109,219.017 554.145,219.019 551.182,219.026 548.218,219.03 545.255,219.04 542.291,219.042 539.327,219.062 536.364,219.066 533.4,219.079 530.436,219.081 527.473,219.095 524.509,219.117 521.545,219.118 518.582,219.115 515.618,219.123 512.655,219.131 509.691,219.145 506.727,219.15 503.764,219.141 500.8,219.144 497.836,219.168 494.873,219.173 491.909,219.182 488.945,219.192 485.982,219.2 483.018,219.201 480.055,219.204 477.091,219.238 474.127,219.247 471.164,219.242 468.2,219.25 465.236,219.264 462.273,219.288 459.309,219.302 456.345,219.298 453.382,219.318 450.418,219.325 447.455,219.357 444.491,219.381 441.527,219.39 438.564,219.383 435.6,219.398 432.636,219.427 429.673,219.449 426.709,219.491 423.745,219.915 420.782,223.261 417.818,232.931 414.855,249.532 411.891,275.731 408.927,313.3 405.964,387.533 403.359,653 " />
</g>

<g fill="#ffffff" fill-opacity="1" stroke="#ffffff" stroke-opacity="1" stroke-width="1.6" stroke-linecap="butt" stroke-linejoin="round" transform="matrix(0.75,0,0,0.75,-2.25,-2.25)"
font-family="Helvetica" font-size="24" font-weight="700" font-style="normal" 
>
<polyline fill="none" vector-effect="none" points="77,44 729,44 " />
<polyline fill="none" vector-effect="none" points="729,653 729,44 " />
<polyline fill="none" vector-effect="none" points="106.636,653 106.636,665.18 " />
<polyline fill="none" vector-effect="none" points="254.818,653 254.818,665.18 " />
<polyline fill="none" vector-effect="none" points="403,653 403,665.18 " />
<polyline fill="none" vector-effect="none" points="551.182,653 551.182,665.18 " />
<polyline fill="none" vector-effect="none" points="699.364,653 699.364,665.18 " />
<polyline fill="none" vector-effect="none" points="77,653 69.176,653 " />
<polyline fill="none" vector-effect="none" points="77,479 69.176,479 " />
<polyline fill="none" vector-effect="none" points="77,305 69.176,305 " />
<polyline fill="none" vector-effect="none" points="77,131 69.176,131 " />
</g>

<g fill="#141414" fill-opacity="1" stroke="none" transform="matrix(7.5e-05,0,0,7.5e-05,-2.25,-2.25)"
font-family="Helvetica" font-size="24" font-weight="700" font-style="normal" 
>
<path vector-effect="none" fill-rule="evenodd" d="M7.4e+06,3.05e+06 L7.4e+06,3.91e+06 L8.44e+06,3.91e+06 L8.44e+06,3.05e+06 L7.4e+06,3.05e+06"/>
</g>

<g fill="#ff5459" fill-opacity="1" stroke="#ff5459" stroke-opacity="1" stroke-width="3.73333" stroke-linecap="butt" stroke-linejoin="round" transform="matrix(0.75,0,0,0.75,-2.25,-2.25)"
font-family="Helvetica" font-size="24" font-weight="700" font-style="normal" 
>
<polyline fill="none" vector-effect="none" points="744,315 784,315 " />
</g>

<g fill="#ffa34a" fill-opacity="1" stroke="#ffa34a" stroke-opacity="1" stroke-width="3.73333" stroke-linecap="butt" stroke-linejoin="round" transform="matrix(0.75,0,0,0.75,-2.25,-2.25)"
font-family="Helvetica" font-size="24" font-weight="700" font-style="normal" 
>
<polyline fill="none" vector-effect="none" points="744,331.5 784,331.5 " />
</g>

<g fill="#54ff4a" fill-opacity="1" stroke="#54ff4a" stroke-opacity="1" stroke-width="3.73333" stroke-linecap="butt" stroke-linejoin="round" transform="matrix(0.75,0,0,0.75,-2.25,-2.25)"
font-family="Helvetica" font-size="24" font-weight="700" font-style="normal" 
>
<polyline fill="none" vector-effect="none" points="744,348 784,348 " />
</g>

<g fill="#57abff" fill-opacity="1" stroke="#57abff" stroke-opacity="1" stroke-width="3.73333" stroke-linecap="butt" stroke-linejoin="round" transform="matrix(0.75,0,0,0.75,-2.25,-2.25)"
font-family="Helvetica" font-size="24" font-weight="700" font-style="normal" 
>
<polyline fill="none" vector-effect="none" points="744,364.5 784,364.5 " />
</g>

<g fill="#914dfa" fill-opacity="1" stroke="#914dfa" stroke-opacity="1" stroke-width="3.73333" stroke-linecap="butt" stroke-linejoin="round" transform="matrix(0.75,0,0,0.75,-2.25,-2.25)"
font-family="Helvetica" font-size="24" font-weight="700" font-style="normal" 
>
<polyline fill="none" vector-effect="none" points="744,381 784,381 " />
</g>

<g fill="#ffffff" fill-opacity="1" stroke="#ffffff" stroke-opacity="1" stroke-width="1" stroke-linecap="square" stroke-linejoin="bevel" transform="matrix(0.75,0,0,0.75,588,237.75)"
font-family="Helvetica" font-size="14" font-weight="400" font-style="normal" 
>
<text fill="#ffffff" fill-opacity="1" stroke="none" xml:space="preserve" x="0" y="0" font-family="Helvetica" font-size="14" font-weight="400" font-style="normal" 
 >Sweep1</text>
</g>

<g fill="#ffffff" fill-opacity="1" stroke="#ffffff" stroke-opacity="1" stroke-width="1" stroke-linecap="square" stroke-linejoin="bevel" transform="matrix(0.75,0,0,0.75,588,250.125)"
font-family="Helvetica" font-size="14" font-weight="400" font-style="normal" 
>
<text fill="#ffffff" fill-opacity="1" stroke="none" xml:space="preserve" x="0" y="0" font-family="Helvetica" font-size="14" font-weight="400" font-style="normal" 
 >Sweep2</text>
</g>

<g fill="#ffffff" fill-opacity="1" stroke="#ffffff" stroke-opacity="1" stroke-width="1" stroke-linecap="square" stroke-linejoin="bevel" transform="matrix(0.75,0,0,0.75,588,262.5)"
font-family="Helvetica" font-size="14" font-weight="400" font-style="normal" 
>
<text fill="#ffffff" fill-opacity="1" stroke="none" xml:space="preserve" x="0" y="0" font-family="Helvetica" font-size="14" font-weight="400" font-style="normal" 
 >Sweep3</text>
</g>

<g fill="#ffffff" fill-opacity="1" stroke="#ffffff" stroke-opacity="1" stroke-width="1" stroke-linecap="square" stroke-linejoin="bevel" transform="matrix(0.75,0,0,0.75,588,274.875)"
font-family="Helvetica" font-size="14" font-weight="400" font-style="normal" 
>
<text fill="#ffffff" fill-opacity="1" stroke="none" xml:space="preserve" x="0" y="0" font-family="Helvetica" font-size="14" font-weight="400" font-style="normal" 
 >Sweep4</text>
</g>

<g fill="#ffffff" fill-opacity="1" stroke="#ffffff" stroke-opacity="1" stroke-width="1" stroke-linecap="square" stroke-linejoin="bevel" transform="matrix(0.75,0,0,0.75,588,287.25)"
font-family="Helvetica" font-size="14" font-weight="400" font-style="normal" 
>
<text fill="#ffffff" fill-opacity="1" stroke="none" xml:space="preserve" x="0" y="0" font-family="Helvetica" font-size="14" font-weight="400" font-style="normal" 
 >Sweep5</text>
</g>

<g fill="none" stroke="#666666" stroke-opacity="1" stroke-width="1.6" stroke-linecap="butt" stroke-linejoin="miter" stroke-miterlimit="2" transform="matrix(0.75,0,0,0.75,-2.25,-2.25)"
font-family="Helvetica" font-size="14" font-weight="400" font-style="normal" 
>
<path vector-effect="none" fill-rule="evenodd" d="M740,391 L740,305 L844,305 L844,391 L740,391"/>
</g>

<g fill="#ffffff" fill-opacity="1" stroke="#ffffff" stroke-opacity="1" stroke-width="1" stroke-linecap="square" stroke-linejoin="bevel" transform="matrix(0.75,0,0,0.75,61.14,541.875)"
font-family="Helvetica" font-size="13" font-weight="400" font-style="normal" 
>
<text fill="#ffffff" fill-opacity="1" stroke="none" xml:space="preserve" x="0" y="0" font-family="Helvetica" font-size="13" font-weight="400" font-style="normal" 
 >Sweep1 &lt;- 20 2 DS.csv / Nega Sweep(1)(1), 20 2 DS.csv / Posi Sweep(1)(1)</text>
</g>

<g fill="#ffffff" fill-opacity="1" stroke="#ffffff" stroke-opacity="1" stroke-width="1" stroke-linecap="square" stroke-linejoin="bevel" transform="matrix(0.75,0,0,0.75,61.14,553.125)"
font-family="Helvetica" font-size="13" font-weight="400" font-style="normal" 
>
<text fill="#ffffff" fill-opacity="1" stroke="none" xml:space="preserve" x="0" y="0" font-family="Helvetica" font-size="13" font-weight="400" font-style="normal" 
 >Sweep2 &lt;- 20 3 DS.csv / Nega Sweep(2)(1), 20 3 DS.csv / Posi Sweep(2)(1)</text>
</g>

<g fill="#ffffff" fill-opacity="1" stroke="#ffffff" stroke-opacity="1" stroke-width="1" stroke-linecap="square" stroke-linejoin="bevel" transform="matrix(0.75,0,0,0.75,61.14,564.375)"
font-family="Helvetica" font-size="13" font-weight="400" font-style="normal" 
>
<text fill="#ffffff" fill-opacity="1" stroke="none" xml:space="preserve" x="0" y="0" font-family="Helvetica" font-size="13" font-weight="400" font-style="normal" 
 >Sweep3 &lt;- 20 4 DS.csv / Nega Sweep(3)(1), 20 4 DS.csv / Posi Sweep(3)(1)</text>
</g>

<g fill="#ffffff" fill-opacity="1" stroke="#ffffff" stroke-opacity="1" stroke-width="1" stroke-linecap="square" stroke-linejoin="bevel" transform="matrix(0.75,0,0,0.75,61.14,575.625)"
font-family="Helvetica" font-size="13" font-weight="400" font-style="normal" 
>
<text fill="#ffffff" fill-opacity="1" stroke="none" xml:space="preserve" x="0" y="0" font-family="Helvetica" font-size="13" font-weight="400" font-style="normal" 
 >Sweep4 &lt;- 20 0 DS.csv / Nega Sweep(4)(1), 20 0 DS.csv / Posi Sweep(4)(1)</text>
</g>

<g fill="#ffffff" fill-opacity="1" stroke="#ffffff" stroke-opacity="1" stroke-width="1" stroke-linecap="square" stroke-linejoin="bevel" transform="matrix(0.75,0,0,0.75,61.14,586.875)"
font-family="Helvetica" font-size="13" font-weight="400" font-style="normal" 
>
<text fill="#ffffff" fill-opacity="1" stroke="none" xml:space="preserve" x="0" y="0" font-family="Helvetica" font-size="13" font-weight="400" font-style="normal" 
 >Sweep5 &lt;- 20 1 DS.csv / Nega Sweep(5), 20 1 DS.csv / Posi Sweep(5)</text>
</g>
</g>
</svg>
